PathFileType	4	(X/Y/Z)	C:/Users/opensim2020/Desktop/walking_exp_matlab/subject06_walking18_straight_02.trc																																																																																																																																											
DataRate	CameraRate	NumFrames	NumMarkers	Units	OrigDataRate	OrigDataStartFrame	OrigNumFrames																																																																																																																																							
100	100	7	47	mm	100	2455	326																																																																																																																																							
Frame#	Time	LFHD			RFHD			LBHD			RBHD			C7			T10			CLAV			STRN			RBAK			LSHO			LUPA			LELB			LFRM			LWRA			LWRB			LFIN			RSHO			RUPA			RELB			RFRM			RWRA			RWRB			RFIN			LASI			RASI			LPSI			RPSI			LTHI			LKNE			LTIB			LANK			LHEE			LTOE			RTHI			RKNE			RTIB			RANK			RHEE			RTOE			*39			*40			*41			*42			*43			*44			*45			*46		
		X1	Y1	Z1	X2	Y2	Z2	X3	Y3	Z3	X4	Y4	Z4	X5	Y5	Z5	X6	Y6	Z6	X7	Y7	Z7	X8	Y8	Z8	X9	Y9	Z9	X10	Y10	Z10	X11	Y11	Z11	X12	Y12	Z12	X13	Y13	Z13	X14	Y14	Z14	X15	Y15	Z15	X16	Y16	Z16	X17	Y17	Z17	X18	Y18	Z18	X19	Y19	Z19	X20	Y20	Z20	X21	Y21	Z21	X22	Y22	Z22	X23	Y23	Z23	X24	Y24	Z24	X25	Y25	Z25	X26	Y26	Z26	X27	Y27	Z27	X28	Y28	Z28	X29	Y29	Z29	X30	Y30	Z30	X31	Y31	Z31	X32	Y32	Z32	X33	Y33	Z33	X34	Y34	Z34	X35	Y35	Z35	X36	Y36	Z36	X37	Y37	Z37	X38	Y38	Z38	X39	Y39	Z39	X40	Y40	Z40	X41	Y41	Z41	X42	Y42	Z42	X43	Y43	Z43	X44	Y44	Z44	X45	Y45	Z45	X46	Y46	Z46	X47	Y47	Z47
																																																																																																																																														
204	2.03	-32.25519	1668.33606	958.0661	-26.17716	1656.47302	1089.48083	-161.95308	1605.69873	962.71802	-153.95412	1599.22778	1091.78687	-153.6958	1450.65063	1014.41956	-182.0659	1122.56567	1025.82825	-40.87675	1377.61816	1016.88733	1.99136	1201.06812	1010.08728	-221.40457	1278.57581	1094.83557	-92.18471	1406.1272	854.36304	-74.5153	1204.59863	780.20905	-61.42934	1092.27185	765.80872	12.11778	960.5495	749.32062	111.9082	882.17157	794.07471	57.03072	850.33289	762.48962	126.87775	792.14832	764.17627	-87.97463	1409.05493	1177.67969	-131.38786	1212.96191	1267.06567	-128.12695	1090.32739	1277.70093	-114.25433	970.6485	1293.04736	-57.98573	831.1189	1256.30847	-109.0919	833.12244	1300.54724	-72.87337	756.34204	1299.09241	-14.30344	955.98199	909.03394	1.74141	968.99445	1129.43945	-168.41994	990.61609	946.73004	-152.27141	996.6347	1114.60339	-127.33282	645.81903	866.51752	-158.3652	484.35703	889.7417	-314.48224	277.35214	897.64056	-399.20792	125.88721	941.0567	-440.40744	131.74513	986.14209	-284.84546	33.70357	948.87585	-20.0109	638.83881	1192.36096	2.52077	516.99323	1163.04956	1.17264	251.95784	1166.63293	21.0482	65.78906	1121.19019	-16.27053	39.79944	1077.34338	178.57898	37.12767	1101.92383	-131.99069	1699.86987	1021.77112	NaN	NaN	NaN	NaN	NaN	NaN	NaN	NaN	NaN	NaN	NaN	NaN	NaN	NaN	NaN	NaN	NaN	NaN	NaN	NaN	NaN
205	2.04	-26.08458	1669.27588	960.05341	-19.83023	1656.94641	1091.43652	-155.80829	1606.6864	964.65863	-147.55473	1599.73804	1093.79041	-147.35849	1451.3042	1015.78229	-175.71429	1123.34094	1027.30615	-34.72918	1378.37085	1018.21289	8.42276	1201.93933	1011.19641	-214.8877	1279.07043	1096.24487	-86.00759	1407.15881	855.91083	-67.69134	1205.90356	781.55634	-55.10452	1093.57483	767.03033	17.76926	961.47064	750.31622	116.94231	882.29077	794.99921	62.04995	850.99359	762.95941	131.5867	792.35748	764.79291	-81.55869	1409.63318	1178.93115	-124.13983	1213.47424	1268.6593	-120.24197	1090.7511	1278.85278	-105.91317	971.09698	1293.98022	-49.27842	831.82166	1256.88513	-100.46493	833.62152	1301.41016	-63.78345	756.92944	1299.729	-7.78738	957.05121	909.86926	8.71212	969.65741	1130.14502	-161.79128	991.11456	948.25616	-145.2589	997.24231	1115.953	-118.92638	646.29675	866.90497	-148.14813	484.36154	889.65509	-307.82684	280.0878	897.80414	-395.11691	130.26189	941.21301	-435.72635	137.22609	986.59082	-284.15622	33.81664	949.06586	-14.597	639.02539	1192.60767	7.21822	517.07086	1163.23999	3.94205	251.9489	1166.53186	21.87339	65.93431	1120.63452	-15.97892	40.08229	1077.14392	179.03764	36.45758	1101.28979	-125.73795	1700.70386	1024.0625	NaN	NaN	NaN	NaN	NaN	NaN	NaN	NaN	NaN	NaN	NaN	NaN	NaN	NaN	NaN	NaN	NaN	NaN	NaN	NaN	NaN
206	2.05	-20.03449	1670.10828	961.95764	-13.53585	1657.37573	1093.30737	-149.77184	1607.55957	966.42377	-141.78065	1600.34009	1096.05774	-141.45276	1451.90271	1017.45428	-169.13579	1123.81042	1028.58313	-28.4536	1379.13892	1019.46979	14.80448	1202.71094	1012.31293	-208.54123	1279.4917	1097.79675	-79.97171	1408.0564	857.42291	-61.13589	1207.02307	782.81049	-48.87738	1094.70459	768.17615	23.36935	962.15552	751.08527	121.98278	882.37451	796.05371	67.38669	851.39417	763.36792	136.00609	792.38464	765.60834	-75.30167	1410.2688	1180.323	-116.85564	1213.79053	1269.82239	-112.34213	1091.10901	1279.94604	-97.5325	971.48853	1294.92407	-40.53162	832.46741	1257.47278	-91.40698	833.99945	1302.13013	-54.64617	757.50623	1300.32751	-1.3519	958.0509	910.74615	15.50751	970.18079	1131.00159	-155.27002	991.58777	949.69708	-138.26004	997.71112	1117.27649	-110.33816	646.55597	867.20398	-137.57854	484.21967	889.4292	-300.54291	282.85645	898.13495	-390.55969	134.69942	941.28119	-430.37253	142.85422	987.0528	-283.30887	33.93223	949.19861	-8.99696	639.43402	1192.49573	12.10235	517.19208	1163.5166	6.71817	252.08446	1166.20679	22.73343	66.04022	1120.06445	-15.69953	40.33588	1076.99194	179.41895	36.07652	1100.80933	-119.45831	1701.2865	1026.19617	NaN	NaN	NaN	NaN	NaN	NaN	NaN	NaN	NaN	NaN	NaN	NaN	NaN	NaN	NaN	NaN	NaN	NaN	NaN	NaN	NaN
207	2.06	-13.8795	1670.80933	963.76886	-7.43727	1657.72742	1095.08923	-143.77818	1608.44165	968.21619	-135.30667	1600.76208	1097.448	-135.35561	1452.42786	1018.99902	-162.62456	1124.19421	1029.89233	-22.40076	1379.7218	1020.83551	21.21419	1203.40894	1013.54474	-202.1965	1279.73425	1099.25073	-73.98179	1408.8623	858.89905	-54.79538	1207.98035	784.11505	-42.83771	1095.67871	769.31854	28.89518	962.89185	751.89685	127.05223	882.47223	797.06683	72.12091	852.10236	763.43201	140.94728	792.66144	765.96716	-69.1237	1410.78284	1181.65979	-109.84548	1214.0968	1271.21753	-104.61852	1091.38367	1281.09631	-89.14527	971.83502	1295.83704	-31.77826	833.06805	1258.02917	-82.41135	834.4043	1302.87366	-45.26756	758.0899	1300.94788	5.08269	958.97565	911.71808	22.28584	970.62091	1131.89392	-148.77208	991.88348	951.08405	-131.48604	998.15448	1118.58875	-101.40909	646.69885	867.42487	-126.52942	483.95932	889.18243	-292.76242	285.67065	898.32916	-385.56342	139.25793	941.13287	-424.76602	148.7375	987.18463	-282.49265	33.94496	949.40765	-2.48048	639.97504	1192.93555	17.11905	517.3559	1163.84741	9.94064	252.13429	1166.21313	23.51262	66.20184	1119.6698	-15.36029	40.56229	1076.84265	180.12241	35.6897	1100.50952	-113.30718	1701.94861	1028.18835	NaN	NaN	NaN	NaN	NaN	NaN	NaN	NaN	NaN	NaN	NaN	NaN	NaN	NaN	NaN	NaN	NaN	NaN	NaN	NaN	NaN
208	2.07	-7.88135	1671.35754	965.59973	-1.31724	1658.0387	1096.83447	-137.7236	1609.06519	969.90015	-129.21806	1601.1134	1098.97961	-129.35356	1452.82202	1020.40271	-156.15741	1124.52759	1031.21838	-16.50597	1380.21179	1022.21448	27.43034	1203.95837	1014.71875	-195.90622	1279.96326	1100.8479	-68.12226	1409.5188	860.29254	-48.8123	1208.7251	785.34741	-36.99588	1096.52087	770.44537	34.02373	963.60809	752.76788	132.04437	882.51257	798.06683	76.98875	852.37482	763.70331	145.60728	792.74713	766.42169	-63.04454	1411.14893	1183.00049	-102.95289	1214.28906	1272.47046	-96.99839	1091.5874	1282.26318	-80.8203	972.11029	1296.77417	-23.08715	833.59741	1258.61023	-73.39545	834.74719	1303.64197	-35.82225	758.61316	1301.46741	11.34059	959.76611	912.70685	29.09385	971.09717	1132.75098	-142.52306	992.20416	952.19189	-124.89556	998.57916	1119.71106	-92.21015	646.68054	867.50952	-115.11517	483.56219	888.91754	-284.45535	288.44318	898.59412	-380.02744	143.90128	940.74908	-418.56271	154.72978	987.05548	-281.54135	34.08498	949.5343	3.69851	640.35681	1192.99329	22.16733	517.48462	1164.29358	13.26268	252.04504	1166.48523	24.23601	66.2136	1119.42334	-14.99457	40.7195	1076.79492	180.62201	35.33512	1100.40344	-107.21614	1702.45032	1030.01233	NaN	NaN	NaN	NaN	NaN	NaN	NaN	NaN	NaN	NaN	NaN	NaN	NaN	NaN	NaN	NaN	NaN	NaN	NaN	NaN	NaN
209	2.08	-2.01111	1671.90613	967.18646	4.58878	1658.37756	1098.44641	-131.88107	1609.64978	971.51086	-123.30559	1601.505	1100.64795	-123.55071	1453.2937	1021.97485	-149.97293	1124.80273	1032.55762	-10.43808	1380.67786	1023.48938	33.57097	1204.44153	1015.93274	-189.79443	1280.12695	1102.32373	-62.34848	1410.05286	861.66138	-43.10939	1209.30994	786.56982	-31.24824	1097.28967	771.32458	39.0479	964.06091	753.63727	136.4917	882.20538	798.90289	81.87226	852.61273	764.04517	150.05847	792.79126	766.96906	-56.99214	1411.45752	1184.31543	-95.92848	1214.35339	1273.69104	-89.38552	1091.72668	1283.4126	-72.5507	972.3028	1297.69629	-14.07728	834.21851	1259.16296	-64.34319	835.03625	1304.4574	-26.16014	759.0824	1301.98828	17.49953	960.48688	913.72241	35.69243	971.48492	1133.64307	-136.26736	992.34064	953.28809	-118.40001	998.96967	1120.79224	-82.86674	646.53931	867.69904	-103.28219	483.08664	888.72241	-275.97278	291.40829	898.40015	-374.03793	148.73105	940.17767	-411.75464	160.97147	986.73541	-280.5983	34.39799	949.59967	9.44401	640.70648	1192.96985	27.11388	517.55945	1164.78003	15.76507	252.04753	1166.72241	24.8495	66.1919	1119.35046	-14.76504	40.85951	1076.85291	180.91814	35.1064	1100.26636	-101.24865	1702.88489	1031.73071	NaN	NaN	NaN	NaN	NaN	NaN	NaN	NaN	NaN	NaN	NaN	NaN	NaN	NaN	NaN	NaN	NaN	NaN	NaN	NaN	NaN
210	2.09	3.92798	1672.3429	968.71552	10.4378	1658.75354	1099.96899	-125.97702	1610.05725	972.91235	-117.42569	1601.84473	1102.01819	-117.40784	1453.49231	1023.13824	-143.65874	1124.9729	1033.77356	-4.48918	1381.08789	1024.74756	39.49369	1204.7876	1017.08191	-183.63812	1280.23425	1103.80212	-56.64785	1410.54358	862.97858	-37.76357	1209.73926	787.74097	-25.98617	1097.78772	772.45776	44.28015	964.30542	754.50201	140.89853	881.98981	799.88464	86.46328	852.84735	764.70789	154.72401	792.89978	767.15741	-51.03326	1411.7334	1185.61304	-89.33383	1214.48645	1275.04749	-81.86702	1091.77502	1284.53662	-64.27069	972.43433	1298.6167	-5.05699	834.77875	1259.71387	-55.04168	835.22046	1305.0083	-16.54516	759.59235	1302.53918	23.51922	961.08789	914.64069	42.18823	971.82867	1134.53467	-130.55186	992.67804	953.90454	-111.93264	999.30933	1121.69958	-73.36951	646.26758	867.94116	-91.12169	482.59027	888.57281	-266.27301	294.39276	898.3847	-367.58017	153.70976	939.3421	-404.59503	167.48743	986.10291	-279.1756	35.27328	949.40881	15.81436	641.06531	1193.43372	31.95496	517.59839	1165.26111	18.42877	251.99269	1167.2373	25.2836	66.13309	1119.38306	-14.59812	40.93209	1076.99097	181.14047	34.84826	1100.24817	-95.42966	1703.27063	1033.23633	NaN	NaN	NaN	NaN	NaN	NaN	NaN	NaN	NaN	NaN	NaN	NaN	NaN	NaN	NaN	NaN	NaN	NaN	NaN	NaN	NaN
